<?xml version="1.0" standalone="no"?>
<!DOCTYPE svg PUBLIC "-//W3C//DTD SVG 20010904//EN"
 "http://www.w3.org/TR/2001/REC-SVG-20010904/DTD/svg10.dtd">
<svg version="1.0" xmlns="http://www.w3.org/2000/svg"
 width="512.000000pt" height="512.000000pt" viewBox="0 0 512.000000 512.000000"
 preserveAspectRatio="xMidYMid meet">
<metadata>
Created by potrace 1.14, written by Peter Selinger 2001-2017
</metadata>
<g transform="translate(0.000000,512.000000) scale(0.100000,-0.100000)"
fill="#000000" stroke="none">
<path d="M2390 4924 c-476 -45 -876 -198 -1247 -475 -111 -84 -333 -300 -415
-404 -573 -732 -678 -1705 -272 -2524 123 -250 258 -437 453 -631 195 -194
378 -324 626 -446 335 -164 652 -237 1030 -237 376 0 694 73 1030 238 635 310
1095 889 1258 1580 47 197 60 314 60 535 0 207 -8 293 -44 475 -195 974 -984
1723 -1969 1870 -103 15 -422 27 -510 19z m81 -1549 c84 -14 204 -51 251 -76
l26 -14 -57 -147 c-32 -81 -60 -150 -63 -154 -3 -3 -50 11 -105 32 -82 31
-114 38 -198 42 -109 5 -145 -4 -207 -52 -45 -34 -94 -118 -115 -196 -26 -100
-24 -294 5 -387 68 -220 255 -280 559 -178 58 19 107 35 109 35 2 0 4 -74 4
-166 l0 -165 -35 -15 c-99 -41 -207 -58 -370 -59 -182 0 -230 9 -350 64 -147
68 -244 182 -302 351 -58 172 -67 402 -22 579 55 219 208 400 398 472 129 48
314 62 472 34z m1249 8 c0 -5 -122 -347 -272 -760 l-273 -753 -173 0 c-142 0
-173 3 -170 14 2 7 125 349 273 760 l270 746 173 0 c94 0 172 -3 172 -7z
m-2337 -473 c-5 -4 -145 -69 -313 -145 -168 -76 -306 -139 -308 -140 -1 -1
139 -60 313 -130 l315 -128 0 -148 c0 -82 -1 -149 -2 -149 -2 0 -232 103 -513
228 l-510 227 -3 85 -3 85 513 256 513 257 3 -146 c1 -80 -1 -148 -5 -152z
m3447 -298 l0 -88 -434 -192 c-238 -105 -468 -208 -510 -227 l-77 -35 3 151 3
151 302 122 c167 67 305 125 308 127 3 3 -133 69 -302 146 l-308 140 -3 152
-3 151 511 -255 510 -255 0 -88z"/>
</g>
</svg>
